<svg width="1178" height="389" viewBox="0 0 1178 389" fill="none" xmlns="http://www.w3.org/2000/svg">
<mask id="mask0_8207_8260" style="mask-type:alpha" maskUnits="userSpaceOnUse" x="0" y="0" width="1178" height="389">
<rect width="1178" height="389" rx="26" fill="#FBF7FF"/>
</mask>
<g mask="url(#mask0_8207_8260)">
<path d="M917.593 162.29C917.593 192.95 942.139 217.938 972.639 218.614L972.644 218.645H1026.29C1057.16 218.645 1082.18 243.625 1082.18 274.474C1082.18 305.336 1057.16 330.342 1026.29 330.342L814.755 330.342L814.751 330.342C813.688 330.358 812.632 330.404 811.584 330.478V218.408V218.158H811.334L733.871 218.158C702.998 218.158 678.009 193.152 678.009 162.29C678.009 131.466 702.998 106.447 733.871 106.447L811.321 106.447H811.571V106.197V39.348C811.584 14.4472 831.788 -5.75 856.711 -5.75L1161.88 -5.75C1193.97 -5.75 1219.74 21.2775 1217.63 53.8232C1215.7 83.4891 1189.72 105.96 1159.96 105.96L972.243 105.96C972.237 105.96 972.23 105.96 972.224 105.96V106.005C941.914 106.885 917.593 131.76 917.593 162.29ZM811.584 513.622V442.891C812.632 442.965 813.688 443.01 814.751 443.026H814.755L870.709 443.026C902.783 443.026 928.555 470.08 926.441 502.626C924.51 532.266 898.533 554.75 868.77 554.75H852.726C830.006 554.75 811.584 536.309 811.584 513.622ZM808.126 442.539H709.112C678.238 442.566 653.25 417.56 653.25 386.697C653.25 355.835 678.238 330.855 709.112 330.855H807.93C780.448 334.603 759.245 358.167 759.245 386.684C759.245 415.257 780.549 438.876 808.126 442.539Z" stroke="#BA89F9" stroke-width="0.5"/>
<path d="M159.593 102.29C159.593 132.95 184.139 157.938 214.639 158.614L214.644 158.645H268.291C299.165 158.645 324.179 183.625 324.179 214.474C324.179 245.336 299.165 270.342 268.291 270.342L56.7551 270.342L56.7514 270.342C55.6883 270.358 54.6323 270.404 53.5842 270.478L53.5842 158.408V158.158H53.3342L-24.129 158.158C-55.0023 158.158 -79.9906 133.152 -79.9906 102.29C-79.9906 71.4662 -55.0024 46.4474 -24.129 46.4474L53.3211 46.4474H53.5711V46.1974L53.5711 -20.652C53.5841 -45.5528 73.7882 -65.75 98.711 -65.75L403.884 -65.75C435.971 -65.75 461.742 -38.7225 459.629 -6.17676C457.698 23.4891 431.722 45.9605 401.958 45.9605L214.243 45.9605C214.237 45.9605 214.23 45.9605 214.224 45.9605V46.0054C183.914 46.885 159.593 71.7596 159.593 102.29ZM53.5842 453.622V382.891C54.6323 382.965 55.6883 383.01 56.7514 383.026H56.7551L112.709 383.026C144.783 383.026 170.555 410.08 168.441 442.626C166.51 472.266 140.533 494.75 110.77 494.75H94.7265C72.0057 494.75 53.5842 476.309 53.5842 453.622ZM50.1262 382.539H-48.8884C-79.7617 382.566 -104.75 357.56 -104.75 326.697C-104.75 295.835 -79.7619 270.855 -48.8884 270.855H49.9299C22.4475 274.603 1.24545 298.167 1.24545 326.684C1.24545 355.257 22.5485 378.876 50.1262 382.539Z" stroke="#BA89F9" stroke-width="0.5"/>
</g>
</svg>
